<?xml version="1.0" encoding="utf-8"?><!-- Uploaded to: SVG Repo, www.svgrepo.com, Generator: SVG Repo Mixer Tools -->
<svg fill="#000000" width="800px" height="800px" viewBox="0 0 24 24" id="soup" data-name="Flat Line" xmlns="http://www.w3.org/2000/svg" class="icon flat-line"><path id="secondary" d="M4,10v6a2,2,0,0,0,2,2H6l.45.89A2,2,0,0,0,8.24,20h7.52a2,2,0,0,0,1.79-1.11L18,18h0a2,2,0,0,0,2-2V10Z" style="fill: rgb(44, 169, 188); stroke-width: 2;"></path><path id="primary" d="M20,10v6a2,2,0,0,1-2,2h0l-.45.89A2,2,0,0,1,15.76,20H8.24a2,2,0,0,1-1.79-1.11L6,18H6a2,2,0,0,1-2-2V10ZM16,4V6M12,4V6M8,4V6M3,10H21" style="fill: none; stroke: rgb(0, 0, 0); stroke-linecap: round; stroke-linejoin: round; stroke-width: 2;"></path></svg>